<?xml version="1.0" encoding="utf-8"?>
<!-- Generator: Adobe Illustrator 27.3.1, SVG Export Plug-In . SVG Version: 6.00 Build 0)  -->
<svg version="1.1" id="Layer_1" xmlns="http://www.w3.org/2000/svg" xmlns:xlink="http://www.w3.org/1999/xlink" x="0px" y="0px"
	 viewBox="0 0 240 44" style="enable-background:new 0 0 240 44;" xml:space="preserve">
<style type="text/css">
	.st0{display:none;}
	.st1{display:inline;fill:#0985C3;}
	.st2{display:inline;fill:#333538;}
	.st3{fill:#0985C3;}
	.st4{fill:#262626;}
</style>
<g class="st0">
	<path class="st1" d="M11.7,29.4c-1.5,0-3-0.2-4.3-0.6c-1.3-0.5-2.4-1.1-3.3-2l2.2-3.7l0.2-0.3L6.8,23c0,0.2,0.1,0.3,0.2,0.5
		s0.3,0.4,0.6,0.6c0.6,0.4,1.2,0.8,1.9,1c0.7,0.3,1.5,0.4,2.3,0.4c1.1,0,1.9-0.2,2.6-0.6c0.6-0.4,1-1.1,1-2c0-0.4-0.1-0.8-0.3-1.2
		c-0.2-0.4-0.6-0.8-1.2-1.2c-0.6-0.4-1.5-0.9-2.7-1.5c-1.6-0.7-2.8-1.4-3.7-2.1S6,15.5,5.6,14.7C5.1,14,4.9,13.1,4.9,12
		s0.3-2.1,0.9-3c0.7-0.8,1.6-1.5,2.7-2s2.3-0.8,3.7-0.8c2.9,0,5.2,1,7,2.9l-2.7,3l-0.2,0.3L16,12.1c0-0.2-0.1-0.4-0.1-0.5
		c0-0.2-0.2-0.4-0.4-0.7c-0.4-0.4-0.9-0.6-1.4-0.8c-0.5-0.1-1-0.2-1.7-0.2c-0.9,0-1.6,0.2-2.2,0.6c-0.5,0.4-0.8,0.8-0.8,1.4
		c0,0.4,0.1,0.8,0.3,1.1s0.6,0.7,1.2,1.1c0.6,0.4,1.6,0.9,2.9,1.5c1.5,0.7,2.7,1.5,3.6,2.1c0.9,0.7,1.5,1.4,1.9,2.2
		c0.4,0.8,0.5,1.7,0.5,2.8c0,1.1-0.3,2.2-0.9,3.2s-1.4,1.8-2.6,2.4C15.1,29.1,13.5,29.4,11.7,29.4z M23.8,29v-3.6h4.1v-9.7H24v-3.6
		h8.5v13.2h3.7V29H23.8z M30,9.6c-0.8,0-1.4-0.3-2-0.8c-0.5-0.5-0.8-1.2-0.8-1.9c0-0.8,0.3-1.4,0.8-1.9s1.2-0.8,2-0.8
		c0.7,0,1.4,0.3,1.9,0.8c0.6,0.5,0.9,1.2,0.9,1.9s-0.3,1.3-0.9,1.9C31.4,9.3,30.7,9.6,30,9.6z M40,29V12.2h3.7v1.1
		c0.4-0.6,0.9-0.9,1.3-1.2s1-0.3,1.4-0.3c0.6,0,1.1,0.1,1.6,0.4c0.5,0.3,0.9,0.8,1.3,1.5c0.7-1.3,1.9-1.9,3.5-1.9
		c1.2,0,2.1,0.4,2.7,1.3c0.6,0.9,0.8,2.1,0.8,3.6V29h-3.9V17.6c0-1-0.1-1.6-0.2-2c-0.1-0.4-0.3-0.6-0.6-0.6c-0.4,0-0.8,0.3-1.1,0.8
		c-0.3,0.6-0.5,1.4-0.5,2.4V29h-3.6V17.7c0-1.1-0.1-1.8-0.2-2.2c-0.1-0.4-0.4-0.6-0.8-0.6c-0.4,0-0.8,0.3-1,0.8
		C44.1,16.2,44,17,44,18v11H40z M58.6,35V12.1H63v2.1c0.6-0.8,1.2-1.5,2-1.8c0.8-0.4,1.7-0.6,2.6-0.6c1.2,0,2.3,0.3,3.3,1
		s1.8,1.7,2.3,3c0.6,1.3,0.9,3,0.9,4.9c0,2-0.3,3.6-0.9,4.9s-1.4,2.3-2.4,2.9s-2.1,0.9-3.3,0.9c-0.9,0-1.7-0.1-2.5-0.4
		s-1.4-0.7-1.9-1.2V35H58.6z M66.2,26c1,0,1.9-0.4,2.5-1.2s1-2.3,1-4.4c0-1.6-0.3-2.8-0.9-3.7c-0.6-0.9-1.4-1.4-2.4-1.4
		c-1.1,0-1.9,0.4-2.4,1.3s-0.8,2.3-0.8,4.2c0,1.8,0.3,3.1,0.8,3.9C64.4,25.6,65.2,26,66.2,26z M77.1,29v-3.6h4.7v-17h-4.5V4.8h9.1
		v20.6H91V29H77.1z M97.5,35.3c-0.8,0-1.5-0.1-2.2-0.4c-0.6-0.3-1.3-0.7-1.9-1.2l1.5-3.2l0.1-0.3l0.3,0.1c0.1,0.2,0.2,0.4,0.3,0.5
		c0.1,0.2,0.3,0.4,0.6,0.6c0.3,0.2,0.7,0.3,1.1,0.3c0.6,0,1.2-0.3,1.6-0.8c0.4-0.6,0.8-1.5,1.3-2.7v-0.1L93.8,12h4.5l4,10.4l1.7-4.6
		c0.4-1,0.6-1.9,0.9-2.8c0.2-0.9,0.4-1.9,0.4-2.9h4.2c-0.1,1.1-0.3,2.2-0.8,3.5c-0.4,1.2-0.8,2.4-1.2,3.5l-4.2,11.3
		c-0.7,1.8-1.5,3.1-2.5,3.9C100,35,98.8,35.3,97.5,35.3z"/>
	<path class="st2" d="M112.5,29V6.6h7.3c2.8,0,4.8,0.6,6.1,1.8c1.3,1.2,2,2.8,2,4.8c0,1.2-0.4,2.5-1.1,3.6c-0.7,1.2-1.7,2-3,2.5
		l4.7,9.6h-4.8l-4.4-9.1h-2.1V29H112.5z M117.1,16.1h2.9c1,0,1.8-0.2,2.3-0.7c0.6-0.5,0.8-1.2,0.8-2.1c0-0.8-0.3-1.4-0.8-2
		s-1.3-0.9-2.3-0.9h-2.9V16.1z M138.7,29.4c-1.6,0-3-0.3-4.3-1s-2.3-1.7-3-3s-1.1-2.9-1.1-4.7c0-1.9,0.4-3.5,1.1-4.8
		c0.7-1.3,1.7-2.4,2.9-3.1c1.2-0.7,2.6-1.1,4.1-1.1c1.3,0,2.5,0.3,3.6,0.9c1.1,0.6,2,1.5,2.7,2.8c0.7,1.2,1,2.7,1,4.5
		c0,0.3,0,0.6,0,1s0,0.7,0,1h-10.9c0,0.9,0.3,1.7,0.7,2.2c0.4,0.6,1,1,1.6,1.3s1.3,0.4,2,0.4s1.4-0.1,2.1-0.3
		c0.6-0.2,1.3-0.6,1.8-1.2l2.3,2.3c-0.8,1-1.8,1.7-2.9,2.2C141.2,29.2,140,29.4,138.7,29.4z M134.7,18.5h6.5c0-1.1-0.3-1.8-0.8-2.4
		c-0.6-0.6-1.3-0.8-2.3-0.8c-0.9,0-1.6,0.3-2.2,0.8S134.9,17.4,134.7,18.5z M156.9,29.4c-1.7,0-3.1-0.4-4.5-1.1s-2.4-1.8-3.1-3.1
		c-0.7-1.3-1.1-2.8-1.1-4.5s0.4-3.2,1.1-4.5c0.8-1.4,1.8-2.4,3.1-3.2s2.8-1.2,4.5-1.2c1.6,0,3,0.3,4.2,0.9c1.2,0.6,2.1,1.4,2.8,2.4
		l-2.5,2.7l-0.3,0.3l-0.3-0.2c0-0.2,0-0.4-0.1-0.6c0-0.2-0.2-0.5-0.4-0.8c-0.4-0.4-0.9-0.7-1.5-0.9c-0.5-0.2-1.1-0.3-1.8-0.3
		c-1.1,0-2.1,0.5-3,1.4c-0.9,0.9-1.3,2.3-1.3,4c0,1.1,0.2,2,0.6,2.7c0.4,0.7,0.9,1.3,1.6,1.7c0.7,0.4,1.4,0.6,2.1,0.6
		s1.4-0.1,2.1-0.4c0.7-0.3,1.4-0.9,2.1-1.7l2.5,2.9c-0.9,1-2,1.7-3.2,2.2C159.3,29.2,158.1,29.4,156.9,29.4z M167.8,29v-3.6h4.1
		v-9.7H168v-3.6h8.5v13.2h3.7V29H167.8z M174,9.6c-0.8,0-1.4-0.3-2-0.8c-0.5-0.5-0.8-1.2-0.8-1.9c0-0.8,0.3-1.4,0.8-1.9
		s1.2-0.8,2-0.8c0.7,0,1.4,0.3,1.9,0.8c0.6,0.5,0.9,1.2,0.9,1.9s-0.3,1.3-0.9,1.9C175.4,9.3,174.7,9.6,174,9.6z M184.6,35V12.1h4.5
		v2.1c0.6-0.8,1.2-1.5,2-1.8c0.8-0.4,1.7-0.6,2.6-0.6c1.2,0,2.3,0.3,3.3,1s1.8,1.7,2.3,3c0.6,1.3,0.9,3,0.9,4.9c0,2-0.3,3.6-0.9,4.9
		c-0.6,1.3-1.4,2.3-2.4,2.9s-2.1,0.9-3.3,0.9c-0.9,0-1.7-0.1-2.5-0.4s-1.4-0.7-1.9-1.2V35H184.6z M192.2,26c1,0,1.9-0.4,2.5-1.2
		c0.6-0.8,1-2.3,1-4.4c0-1.6-0.3-2.8-0.9-3.7c-0.6-0.9-1.4-1.4-2.4-1.4c-1.1,0-1.9,0.4-2.4,1.3s-0.8,2.3-0.8,4.2
		c0,1.8,0.3,3.1,0.8,3.9S191.2,26,192.2,26z M210.7,29.4c-1.6,0-3-0.3-4.3-1s-2.3-1.7-3-3s-1.1-2.9-1.1-4.7c0-1.9,0.4-3.5,1.1-4.8
		c0.7-1.3,1.7-2.4,2.9-3.1c1.2-0.7,2.6-1.1,4.1-1.1c1.3,0,2.5,0.3,3.6,0.9c1.1,0.6,2,1.5,2.7,2.8c0.7,1.2,1,2.7,1,4.5
		c0,0.3,0,0.6,0,1s0,0.7,0,1h-10.9c0,0.9,0.3,1.7,0.7,2.2c0.4,0.6,1,1,1.6,1.3s1.3,0.4,2,0.4s1.4-0.1,2.1-0.3
		c0.6-0.2,1.3-0.6,1.8-1.2l2.3,2.3c-0.8,1-1.8,1.7-2.9,2.2C213.2,29.2,212,29.4,210.7,29.4z M206.7,18.5h6.5c0-1.1-0.3-1.8-0.8-2.4
		c-0.6-0.6-1.3-0.8-2.3-0.8c-0.9,0-1.6,0.3-2.2,0.8S206.9,17.4,206.7,18.5z M228.4,29.4c-1.6,0-3.1-0.2-4.4-0.6
		c-1.3-0.4-2.5-1.1-3.5-2.1l1.9-3.6l0.1-0.3l0.3,0.2c0,0.2,0.1,0.4,0.2,0.6c0.1,0.2,0.3,0.4,0.6,0.7c0.6,0.5,1.3,0.9,2.1,1.2
		c0.8,0.3,1.7,0.4,2.8,0.4c0.9,0,1.6-0.1,2.1-0.4s0.8-0.7,0.8-1.2s-0.3-0.9-0.9-1.2c-0.6-0.3-1.6-0.6-2.9-1
		c-1.8-0.5-3.3-1.1-4.4-1.9c-1.1-0.8-1.6-1.9-1.6-3.3c0-0.9,0.3-1.8,0.8-2.6c0.6-0.8,1.4-1.4,2.4-1.8c1-0.5,2.2-0.7,3.6-0.7
		c2.8,0,5,0.9,6.8,2.6l-2.2,3.1l-0.2,0.3l-0.3-0.3c0-0.2-0.1-0.3-0.2-0.5c-0.1-0.2-0.2-0.4-0.5-0.7c-0.5-0.3-1-0.6-1.6-0.7
		c-0.6-0.1-1.2-0.2-1.8-0.2c-0.8,0-1.4,0.1-2,0.4c-0.6,0.2-0.8,0.6-0.8,1.1s0.3,0.8,0.9,1.1c0.6,0.3,1.7,0.6,3,0.9
		c2,0.5,3.5,1.1,4.4,2s1.4,2,1.4,3.3c0,1-0.3,1.8-0.8,2.7c-0.5,0.8-1.3,1.5-2.3,2C231.2,29.2,229.9,29.4,228.4,29.4z"/>
</g>
<g>
	<path class="st3" d="M21.2,24.3c0,1.1-0.2,3.3-1.4,5.1c-1.4,2.1-3.9,3.2-7.4,3.2c-2.9,0-5.1-0.7-6.7-2.2c-0.7-0.7-1.7-1.9-2.2-4
		c0-0.2,0.1-0.3,0.2-0.4l5.9-1.2c0.2,0,0.3,0.1,0.4,0.2c0.5,1.8,2,1.9,2.3,1.9c1.4,0,2.3-1.2,2.3-2.4c0-1.2-1-1.7-4.5-3.2l-0.3-0.1
		c-1.7-0.7-6.1-2.5-6.1-7.4c0-5.2,4.5-8,8.8-8c0.8,0,2.3,0.1,3.9,0.7c1.1,0.5,3.4,1.8,3.9,4.5c0,0.2-0.1,0.3-0.2,0.4l-5.4,1.4
		c-0.1,0-0.3,0-0.4-0.2c-0.3-0.6-0.8-1.1-1.9-1.1c-1,0-2.1,0.7-2.1,1.9c0,1.1,0.7,1.4,5.1,3.5C19.5,18.9,21.2,21,21.2,24.3z"/>
	<path class="st3" d="M28.2,6.9v4c0,0.2-0.1,0.3-0.3,0.3h-5.4c-0.2,0-0.3-0.1-0.3-0.3v-4c0-0.2,0.1-0.3,0.3-0.3h5.4
		C28.1,6.5,28.2,6.7,28.2,6.9z M28.2,13v18.8c0,0.2-0.1,0.3-0.3,0.3h-5.4c-0.2,0-0.3-0.1-0.3-0.3V13c0-0.2,0.1-0.3,0.3-0.3h5.4
		C28.1,12.7,28.2,12.8,28.2,13z"/>
	<path class="st3" d="M58.9,20.9v10.9c0,0.2-0.1,0.3-0.3,0.3h-5.8c-0.2,0-0.3-0.1-0.3-0.3V21.2c0-0.7,0-1.5-0.3-2.2
		c-0.1-0.3-0.3-0.5-0.5-0.7c-0.4-0.3-0.8-0.4-1.4-0.4c-1.1,0-2,0.4-2.3,1c-0.3,0.7-0.3,1.6-0.3,2.3v10.6c0,0.2-0.1,0.3-0.3,0.3h-5.6
		c-0.2,0-0.3-0.1-0.3-0.3l0-10.6c0-0.7,0-1.5-0.3-2.2c-0.1-0.3-0.3-0.5-0.5-0.7c-0.4-0.3-0.8-0.4-1.4-0.4c-1.1,0-2,0.4-2.3,1
		c-0.3,0.7-0.3,1.6-0.3,2.3v10.6c0,0.2-0.1,0.3-0.3,0.3h-5.8c-0.2,0-0.3-0.1-0.3-0.3V13c0-0.2,0.1-0.3,0.3-0.3h5.4
		c0.2,0,0.3,0.1,0.3,0.3v0.5c0,0.1,0.1,0.2,0.2,0.1c4.4-3,8.6,0.3,8.7,0.4c0.2,0.1,0.3,0.3,0.4,0.4c0.1,0.1,0.2,0.2,0.3,0.4
		c0.1,0.1,0.4,0.1,0.5,0c0.3-0.4,0.7-0.8,1.2-1.1c0.6-0.4,1.2-0.7,1.9-0.9c3.7-1.3,6.9,1.3,6.9,1.3c0.2,0.1,0.3,0.3,0.4,0.4l0,0
		C58.5,16.4,58.9,18,58.9,20.9z"/>
	<path class="st3" d="M82.1,22.6c0,5.6-4.6,10.2-10.3,10.2c-1.8,0-3.6-0.5-5.1-1.3c-0.1-0.1-0.2,0-0.2,0.1v6.7
		c0,0.2-0.1,0.3-0.3,0.3h-5.4c-0.2,0-0.3-0.1-0.3-0.3V13c0-0.2,0.1-0.3,0.3-0.3h5.4c0.2,0,0.3,0.1,0.3,0.3v0.6
		c0,0.1,0.1,0.2,0.2,0.1c1.6-0.9,3.3-1.3,5.1-1.3C77.5,12.4,82.1,16.9,82.1,22.6z M75.6,22.6c0-2.6-2.1-4.7-4.7-4.7
		c-2.6,0-4.4,2.1-4.4,4.7s1.8,4.7,4.4,4.7C73.5,27.2,75.6,25.1,75.6,22.6z"/>
	<path class="st3" d="M89.5,6.9v25c0,0.2-0.1,0.3-0.3,0.3h-5.7c-0.2,0-0.3-0.1-0.3-0.3v-25c0-0.2,0.1-0.3,0.3-0.3h5.7
		C89.4,6.5,89.5,6.7,89.5,6.9z"/>
	<path class="st3" d="M109.8,13.1l-6.1,17l-2.9,8.1c0,0.1-0.2,0.2-0.3,0.2h-6c-0.2,0-0.4-0.2-0.3-0.4l2.4-7c0-0.1,0-0.1,0-0.2
		l-6.5-17.7c-0.1-0.2,0.1-0.4,0.3-0.4h5.4c0.1,0,0.2,0.1,0.3,0.2l3.5,9.6c0.1,0.3,0.5,0.3,0.6,0l3.3-9.6c0-0.1,0.2-0.2,0.3-0.2h5.7
		C109.7,12.7,109.9,12.9,109.8,13.1z"/>
	<path class="st4" d="M129,31.7c0.1,0.2-0.1,0.4-0.3,0.4h-6.4c-0.1,0-0.2-0.1-0.3-0.2l-3.4-7.7c0-0.1-0.2-0.2-0.3-0.2h-1
		c-0.2,0-0.3,0.1-0.3,0.3v7.4c0,0.2-0.1,0.3-0.3,0.3h-5.9c-0.2,0-0.3-0.1-0.3-0.3V6.7c0-0.2,0.1-0.3,0.3-0.3h7.9
		c4.6,0,6.4,0.7,7.7,1.9c1.9,1.6,3,4.1,3,6.8c0,2.7-1.1,5.4-2.7,6.8c-0.5,0.4-0.9,0.7-1.3,1c-0.1,0.1-0.2,0.2-0.1,0.4L129,31.7z
		 M123.1,15.2c0-1.3-0.5-2.1-1.5-2.5c-0.9-0.4-1.9-0.4-2.6-0.4h-1.7c-0.2,0-0.3,0.1-0.3,0.3v5.3c0,0.2,0.1,0.3,0.3,0.3h1.9
		c0.6,0,1.6,0,2.4-0.4C122.9,17.3,123.1,16.1,123.1,15.2z"/>
	<path class="st4" d="M150.1,22.6c0,0.6-0.1,1.2-0.2,1.8c0,0.2-0.2,0.3-0.3,0.3H136c-0.2,0-0.4,0.3-0.3,0.5c0.8,1.4,2.3,2.3,4,2.3
		c1.4,0,2.7-0.6,3.7-1.8c0.1-0.1,0.2-0.1,0.3-0.1l5.2,0.9c0.2,0,0.3,0.3,0.2,0.4c-0.1,0.2-0.3,0.5-0.4,0.7l0,0l-0.1,0.1
		c-0.1,0.1-0.2,0.3-0.3,0.4c-0.1,0.2-0.2,0.3-0.3,0.5l-0.1,0.1l0,0c0,0-0.1,0.1-0.1,0.1l-0.1,0.1c-0.1,0.1-0.1,0.2-0.2,0.3l-0.1,0.1
		c-0.1,0.1-0.2,0.3-0.4,0.4l-0.1,0.1c-0.1,0.1-0.2,0.2-0.2,0.2l0,0c-0.1,0.1-0.2,0.2-0.3,0.3l-0.1,0.1l-0.1-0.1l0.1,0.1
		c-0.1,0.1-0.3,0.2-0.4,0.3l-0.1,0.1c-0.2,0.1-0.3,0.2-0.5,0.3l0,0c-0.2,0.1-0.4,0.2-0.6,0.3l-0.1,0c0,0-0.1,0.1-0.1,0.1l0,0
		c-0.1,0-0.2,0.1-0.3,0.1l0,0c-0.2,0.1-0.4,0.2-0.5,0.2l0,0c-0.1,0-0.2,0.1-0.3,0.1l-0.1,0c-0.1,0-0.3,0.1-0.4,0.1l0,0
		c-0.1,0-0.3,0.1-0.5,0.1l-0.1,0c-0.3,0.1-0.6,0.1-0.9,0.2l-0.1,0c-0.3,0-0.6,0.1-0.9,0.1l-0.1,0c-0.2,0-0.3,0-0.5,0
		c-0.1,0-0.3,0-0.5,0c0,0-0.1,0-0.1,0l0,0c-0.1,0-0.2,0-0.3,0l0,0c0,0-0.1,0-0.1,0c-0.2,0-0.3,0-0.5-0.1h0c0,0,0,0,0,0l-0.1,0
		c-0.1,0-0.3,0-0.4-0.1l-0.1,0c-0.1,0-0.2,0-0.3-0.1l0,0c0,0-0.1,0-0.1,0c-0.2,0-0.3-0.1-0.4-0.1c-0.1,0-0.3-0.1-0.4-0.1
		c0,0-0.1,0-0.1,0l0,0c-0.1,0-0.2-0.1-0.3-0.1l0,0c0,0-0.1,0-0.1,0c-0.1-0.1-0.3-0.1-0.4-0.2l0,0c-0.1-0.1-0.3-0.1-0.4-0.2
		c0,0-0.1,0-0.1,0l0,0c-0.1-0.1-0.2-0.1-0.3-0.2l-0.1-0.1c-0.1-0.1-0.3-0.2-0.4-0.2c-1.2-0.8-2.3-1.9-3.1-3.2
		c-0.1-0.1-0.1-0.2-0.2-0.3l0-0.1c-0.1-0.1-0.1-0.2-0.2-0.3l0-0.1c0,0,0-0.1,0-0.1c-0.2-0.4-0.4-0.8-0.5-1.3
		c-0.1-0.2-0.1-0.4-0.2-0.6c0-0.2-0.1-0.3-0.1-0.5c-0.1-0.5-0.2-1-0.2-1.5c0-0.2,0-0.3,0-0.5c0-0.2,0-0.4,0-0.5
		c0-0.9,0.2-1.8,0.5-2.7c0.1-0.3,0.2-0.5,0.3-0.8c0.1-0.1,0.1-0.3,0.2-0.4c0,0,0-0.1,0-0.1l0-0.1c0,0,0-0.1,0-0.1c0,0,0-0.1,0.1-0.1
		l0.1-0.2c0.1-0.1,0.1-0.3,0.2-0.4c0.8-1.3,1.8-2.3,3.1-3.2c0.1-0.1,0.2-0.2,0.4-0.2l0.1-0.1c0.1-0.1,0.2-0.1,0.3-0.2l0,0
		c0,0,0.1,0,0.1-0.1c0.1-0.1,0.3-0.1,0.4-0.2c0.1-0.1,0.3-0.1,0.4-0.2c0,0,0.1,0,0.1,0l0,0c0.1,0,0.2-0.1,0.3-0.1l0,0
		c0,0,0.1,0,0.1,0c0.1-0.1,0.3-0.1,0.4-0.1c0.1,0,0.3-0.1,0.4-0.1c0,0,0.1,0,0.1,0l0,0c0.1,0,0.2-0.1,0.3-0.1l0.1,0
		c0.1,0,0.4-0.1,0.5-0.1l0,0c0,0,0,0,0,0l0,0c0.1,0,0.3,0,0.5-0.1c0,0,0.1,0,0.1,0l0,0c0.1,0,0.2,0,0.3,0l0,0c0,0,0.1,0,0.1,0
		c0.2,0,0.3,0,0.5,0c0.1,0,0.3,0,0.5,0l0.1,0c0.3,0,0.6,0,0.9,0.1l0.1,0c0.3,0,0.6,0.1,0.9,0.2l0.1,0c0.2,0,0.3,0.1,0.4,0.1l0,0
		c0.1,0,0.3,0.1,0.4,0.1c0,0,0.1,0,0.1,0c0.1,0,0.2,0.1,0.3,0.1l0.1,0c0.2,0.1,0.3,0.1,0.5,0.2l0,0c0.1,0,0.2,0.1,0.2,0.1l0,0
		l-0.1,0.1l0.1-0.1c0,0,0.1,0.1,0.1,0.1c0.2,0.1,0.5,0.3,0.6,0.4l0,0c0.2,0.1,0.3,0.2,0.5,0.4l0,0c0,0,0.1,0,0.1,0.1
		c0.1,0.1,0.3,0.2,0.4,0.3l0.1,0.1c0.1,0.1,0.2,0.2,0.3,0.3l0,0c0.1,0.1,0.2,0.2,0.2,0.2l0.1,0.1c0.1,0.1,0.2,0.3,0.4,0.4l-0.1,0.1
		l0.1-0.1l0.1,0.1c0.1,0.1,0.1,0.2,0.2,0.2l0.1,0.1c0.1,0.1,0.2,0.2,0.2,0.3l0,0c0.1,0.1,0.1,0.2,0.2,0.3l0.1,0.2
		c0,0.1,0.1,0.1,0.1,0.2l0.2,0.3l0,0c0.4,0.7,0.7,1.4,0.9,2.1C149.9,20.6,150.1,21.6,150.1,22.6z M144,20c-0.2-1.4-1.9-2.6-4-2.6
		c-1.9,0-3.7,1.1-4,2.5c0,0.2,0.1,0.4,0.3,0.4h7.4C143.9,20.3,144,20.2,144,20z"/>
	<path class="st4" d="M169.5,27.9c-0.2,0.2-0.4,0.6-0.5,0.7c0,0,0,0,0,0c-0.2,0.3-0.4,0.5-0.6,0.7c0,0,0,0,0,0
		c-0.1,0.1-0.2,0.2-0.3,0.3c0,0,0,0,0,0c-0.1,0.1-0.2,0.2-0.3,0.3c-0.1,0-0.1,0.1-0.2,0.1c0,0-0.1,0.1-0.1,0.1
		c-1.5,1.3-3.3,2.1-5.3,2.4c-0.1,0-0.1,0-0.2,0c-0.1,0-0.2,0-0.2,0c-0.1,0-0.3,0-0.4,0c0,0-0.1,0-0.1,0c-0.2,0-0.3,0-0.5,0
		c-5.7,0-10.3-4.6-10.3-10.2s4.6-10.2,10.3-10.2c0.2,0,0.3,0,0.5,0c0,0,0.1,0,0.1,0c0.1,0,0.3,0,0.4,0c0.1,0,0.2,0,0.2,0
		c0.1,0,0.1,0,0.2,0c2,0.3,3.8,1.1,5.3,2.4c0,0,0.1,0.1,0.1,0.1c0.1,0,0.1,0.1,0.2,0.1c0.1,0.1,0.2,0.2,0.3,0.3c0,0,0,0,0.1,0.1
		c0.1,0.1,0.2,0.2,0.3,0.3c0,0,0,0,0,0.1c0.2,0.2,0.4,0.5,0.6,0.7c0,0,0,0,0,0c0.2,0.3,0.4,0.5,0.5,0.8c0,0,0,0,0,0
		c0.1,0.1,0,0.3-0.1,0.3l-2.8,1.6l-1.6,0.9c-0.1,0.1-0.3,0-0.4-0.1c-0.9-1.4-2.2-2.1-3.7-2.1c-1.5,0-2.8,0.7-3.6,1.7
		c-0.7,0.8-1.2,1.8-1.2,3c0,1.2,0.4,2.2,1.2,3c0.9,1,2.2,1.7,3.6,1.7c1.5,0,2.8-0.8,3.7-2.1c0.1-0.1,0.3-0.2,0.4-0.1l4.3,2.5
		C169.5,27.5,169.6,27.7,169.5,27.9z"/>
	<path class="st4" d="M176.5,6.9v4c0,0.2-0.1,0.3-0.3,0.3h-5.4c-0.2,0-0.3-0.1-0.3-0.3v-4c0-0.2,0.1-0.3,0.3-0.3h5.4
		C176.3,6.5,176.5,6.7,176.5,6.9z M176.5,13v18.8c0,0.2-0.1,0.3-0.3,0.3h-5.4c-0.2,0-0.3-0.1-0.3-0.3V13c0-0.2,0.1-0.3,0.3-0.3h5.4
		C176.3,12.7,176.5,12.8,176.5,13z"/>
	<path class="st4" d="M199.9,22.6c0,5.6-4.6,10.2-10.3,10.2c-1.8,0-3.6-0.5-5.1-1.3c-0.1-0.1-0.2,0-0.2,0.1v6.7
		c0,0.2-0.1,0.3-0.3,0.3h-5.4c-0.2,0-0.3-0.1-0.3-0.3V13c0-0.2,0.1-0.3,0.3-0.3h5.4c0.2,0,0.3,0.1,0.3,0.3v0.6
		c0,0.1,0.1,0.2,0.2,0.1c1.6-0.9,3.3-1.3,5.1-1.3C195.3,12.4,199.9,16.9,199.9,22.6z M193.4,22.6c0-2.6-2.1-4.7-4.7-4.7
		c-2.6,0-4.4,2.1-4.4,4.7s1.8,4.7,4.4,4.7C191.3,27.2,193.4,25.1,193.4,22.6z"/>
	<path class="st4" d="M220.9,22.6c0,0.6-0.1,1.2-0.2,1.8c0,0.2-0.2,0.3-0.3,0.3h-13.6c-0.2,0-0.4,0.3-0.3,0.5c0.8,1.4,2.3,2.3,4,2.3
		c1.4,0,2.7-0.6,3.7-1.8c0.1-0.1,0.2-0.1,0.3-0.1l5.2,0.9c0.2,0,0.3,0.3,0.2,0.4c-0.1,0.2-0.3,0.5-0.4,0.7l0,0l-0.1,0.1
		c-0.1,0.1-0.2,0.3-0.3,0.4c-0.1,0.2-0.2,0.3-0.3,0.5l-0.1,0.1l0,0c0,0-0.1,0.1-0.1,0.1l-0.1,0.1c-0.1,0.1-0.1,0.2-0.2,0.3l-0.1,0.1
		c-0.1,0.1-0.2,0.3-0.4,0.4l-0.1,0.1c-0.1,0.1-0.2,0.2-0.2,0.2l0,0c-0.1,0.1-0.2,0.2-0.3,0.3l-0.1,0.1l-0.1-0.1l0.1,0.1
		c-0.1,0.1-0.3,0.2-0.4,0.3l-0.1,0.1c-0.2,0.1-0.3,0.2-0.5,0.3l0,0c-0.2,0.1-0.4,0.2-0.6,0.3l-0.1,0c0,0-0.1,0.1-0.1,0.1l0,0
		c-0.1,0-0.2,0.1-0.3,0.1l0,0c-0.2,0.1-0.4,0.2-0.5,0.2l0,0c-0.1,0-0.2,0.1-0.3,0.1l-0.1,0c-0.1,0-0.3,0.1-0.4,0.1l0,0
		c-0.1,0-0.3,0.1-0.5,0.1l-0.1,0c-0.3,0.1-0.6,0.1-0.9,0.2l-0.1,0c-0.3,0-0.6,0.1-0.9,0.1l-0.1,0c-0.2,0-0.3,0-0.5,0
		c-0.1,0-0.3,0-0.5,0c0,0-0.1,0-0.1,0l0,0c-0.1,0-0.2,0-0.3,0l0,0c0,0-0.1,0-0.1,0c-0.2,0-0.3,0-0.5-0.1h0c0,0,0,0,0,0l-0.1,0
		c-0.1,0-0.3,0-0.4-0.1l-0.1,0c-0.1,0-0.2,0-0.3-0.1l0,0c0,0-0.1,0-0.1,0c-0.2,0-0.3-0.1-0.4-0.1c-0.1,0-0.3-0.1-0.4-0.1
		c0,0-0.1,0-0.1,0l0,0c-0.1,0-0.2-0.1-0.3-0.1l0,0c0,0-0.1,0-0.1,0c-0.1-0.1-0.3-0.1-0.4-0.2l0,0c-0.1-0.1-0.3-0.1-0.4-0.2
		c0,0-0.1,0-0.1,0l0,0c-0.1-0.1-0.2-0.1-0.3-0.2l-0.1-0.1c-0.1-0.1-0.3-0.2-0.4-0.2c-1.2-0.8-2.3-1.9-3.1-3.2
		c-0.1-0.1-0.1-0.2-0.2-0.3l0-0.1c-0.1-0.1-0.1-0.2-0.2-0.3l0-0.1c0,0,0-0.1,0-0.1c-0.2-0.4-0.4-0.8-0.5-1.3
		c-0.1-0.2-0.1-0.4-0.2-0.6c0-0.2-0.1-0.3-0.1-0.5c-0.1-0.5-0.2-1-0.2-1.5c0-0.2,0-0.3,0-0.5c0-0.2,0-0.4,0-0.5
		c0-0.9,0.2-1.8,0.5-2.7c0.1-0.3,0.2-0.5,0.3-0.8c0.1-0.1,0.1-0.3,0.2-0.4c0,0,0-0.1,0-0.1l0-0.1c0,0,0-0.1,0-0.1c0,0,0-0.1,0.1-0.1
		l0.1-0.2c0.1-0.1,0.1-0.3,0.2-0.4c0.8-1.3,1.8-2.3,3.1-3.2c0.1-0.1,0.2-0.2,0.4-0.2l0.1-0.1c0.1-0.1,0.2-0.1,0.3-0.2l0,0
		c0,0,0.1,0,0.1-0.1c0.1-0.1,0.3-0.1,0.4-0.2c0.1-0.1,0.3-0.1,0.4-0.2c0,0,0.1,0,0.1,0l0,0c0.1,0,0.2-0.1,0.3-0.1l0,0
		c0,0,0.1,0,0.1,0c0.1-0.1,0.3-0.1,0.4-0.1c0.1,0,0.3-0.1,0.4-0.1c0,0,0.1,0,0.1,0l0,0c0.1,0,0.2-0.1,0.3-0.1l0.1,0
		c0.1,0,0.4-0.1,0.5-0.1l0,0c0,0,0,0,0,0l0,0c0.1,0,0.3,0,0.5-0.1c0,0,0.1,0,0.1,0l0,0c0.1,0,0.2,0,0.3,0l0,0c0,0,0.1,0,0.1,0
		c0.2,0,0.3,0,0.5,0c0.1,0,0.3,0,0.5,0l0.1,0c0.3,0,0.6,0,0.9,0.1l0.1,0c0.3,0,0.6,0.1,0.9,0.2l0.1,0c0.2,0,0.3,0.1,0.4,0.1l0,0
		c0.1,0,0.3,0.1,0.4,0.1c0,0,0.1,0,0.1,0c0.1,0,0.2,0.1,0.3,0.1l0.1,0c0.2,0.1,0.3,0.1,0.5,0.2l0,0c0.1,0,0.2,0.1,0.2,0.1l0,0
		l-0.1,0.1l0.1-0.1c0,0,0.1,0.1,0.1,0.1c0.2,0.1,0.5,0.3,0.6,0.4l0,0c0.2,0.1,0.3,0.2,0.5,0.4l0,0c0,0,0.1,0,0.1,0.1
		c0.1,0.1,0.3,0.2,0.4,0.3l0.1,0.1c0.1,0.1,0.2,0.2,0.3,0.3l0,0c0.1,0.1,0.2,0.2,0.2,0.2l0.1,0.1c0.1,0.1,0.2,0.3,0.4,0.4l-0.1,0.1
		l0.1-0.1l0.1,0.1c0.1,0.1,0.1,0.2,0.2,0.2l0.1,0.1c0.1,0.1,0.2,0.2,0.2,0.3l0,0c0.1,0.1,0.1,0.2,0.2,0.3l0.1,0.2
		c0,0.1,0.1,0.1,0.1,0.2l0.2,0.3l0,0c0.4,0.7,0.7,1.4,0.9,2.1C220.8,20.6,220.9,21.6,220.9,22.6z M214.8,20c-0.2-1.4-1.9-2.6-4-2.6
		c-1.9,0-3.7,1.1-4,2.5c0,0.2,0.1,0.4,0.3,0.4h7.4C214.7,20.3,214.8,20.2,214.8,20z"/>
	<path class="st4" d="M236.8,26.3c0,0.7-0.2,1.4-0.5,2.2c-1.2,2.5-3.9,4-7.2,4c-0.5,0-0.9,0-1.4-0.1c-1.5-0.2-2.8-0.6-3.9-1.2
		c-1.1-0.8-2-1.8-2.6-3.2c-0.1-0.2,0-0.4,0.2-0.4l5.3-1.1c0.1,0,0.3,0,0.3,0.1c0.4,0.6,1,0.8,1.4,0.9c0.8,0.1,1.2-0.1,1.4-0.3
		c0.2-0.2,0.3-0.5,0.3-0.8c-0.1-0.7-0.5-1-2.6-2l0,0c-0.4-0.2-0.9-0.4-1.5-0.7c-0.4-0.2-0.8-0.4-1.1-0.5l0,0c-0.1,0-0.1-0.1-0.2-0.1
		c-1.8-1.1-2.9-2.4-3.2-3.8c-0.4-2.1,1-3.9,1.2-4.3c0.4-0.5,0.9-0.9,1.4-1.2c1.6-1,3.7-1.5,5.9-1.2c1.3,0.2,2.5,0.5,3.5,1
		c0.5,0.3,0.9,0.6,1.3,0.9c0.3,0.2,1.2,1.1,1.4,2.4c0,0.2-0.1,0.3-0.2,0.4l-5.2,1.1c-0.1,0-0.3-0.1-0.3-0.2
		c-0.1-0.4-0.5-0.7-1.2-0.8c-0.5-0.1-0.9,0.1-1.1,0.4c-0.2,0.2-0.3,0.5-0.2,0.7c0.1,0.3,0.5,0.9,2.4,1.7c0.4,0.2,0.7,0.3,1.1,0.4
		c0.5,0.2,0.9,0.3,1.3,0.5l0,0C234.1,21.6,237,23.3,236.8,26.3z"/>
</g>
</svg>
